# xmcd database file
#
# Track frame offsets:
# 150
# 13058
# 30237
# 45082
# 56131
# 72208
# 85781
# 100130
# 115829
# 129390
# 150712
#
# Disc length: 2296 seconds
#
# Revision: 2
# Processed by: cddbd v1.5PL3 Copyright (c) Steve Scherf et al.
# Submitted via: CD-Runner 2004.04
#
DISCID=7d08f60b
DTITLE=Peter Adzima - Leave A Pearl
DYEAR=2004
DGENRE=Folk
TTITLE0=I Can't Breathe
TTITLE1=Forgive Her
TTITLE2=River of Gold
TTITLE3=Misunderstanding
TTITLE4=Leaving on a Dream
TTITLE5=A Car With No Wheels
TTITLE6=You'd Think I'd Learn
TTITLE7=Fall in July
TTITLE8=Fiction For the Soul
TTITLE9=Surrending the Flame
TTITLE10=Leave A Pearl
EXTD=
EXTT0=
EXTT1=
EXTT2=
EXTT3=
EXTT4=
EXTT5=
EXTT6=
EXTT7=
EXTT8=
EXTT9=
EXTT10=
PLAYORDER=
